<!-- Generator: Adobe Illustrator 18.1.1, SVG Export Plug-In  -->
<svg version="1.1"
   xmlns="http://www.w3.org/2000/svg" xmlns:xlink="http://www.w3.org/1999/xlink" xmlns:a="http://ns.adobe.com/AdobeSVGViewerExtensions/3.0/"
   x="0px" y="0px" width="157.69px" height="86.713px" viewBox="0 0 157.69 86.713" enable-background="new 0 0 157.69 86.713"
   xml:space="preserve">
<defs>
</defs>
<g>
  <g>
    <path fill="#4D4D4D" d="M28.817,78.964c0-2.93,1.465-5.054,3.809-5.054c1.479,0,2.329,0.894,2.871,1.904l-0.967,0.469
      c-0.396-0.806-1.04-1.333-1.904-1.333c-1.597,0-2.607,1.685-2.607,4.014c0,2.314,1.011,4.014,2.607,4.014
      c0.894,0,1.553-0.615,1.919-1.45l0.967,0.454c-0.542,1.084-1.377,2.036-2.886,2.036C30.282,84.017,28.817,81.893,28.817,78.964z"
      />
    <path fill="#4D4D4D" d="M37.037,83.841v-7.075h1.04v1.128c0.454-0.747,1.143-1.274,2.007-1.274v1.069
      c-0.117-0.015-0.234-0.029-0.352-0.029c-0.645,0-1.362,0.557-1.655,1.157v5.024H37.037z"/>
    <path fill="#4D4D4D" d="M41.065,80.297c0-1.992,0.996-3.706,2.886-3.706c1.904,0,2.886,1.714,2.886,3.706
      s-0.981,3.721-2.886,3.721C42.062,84.017,41.065,82.289,41.065,80.297z M45.738,80.297c0-1.421-0.542-2.769-1.787-2.769
      c-1.23,0-1.772,1.348-1.772,2.769c0,1.436,0.542,2.783,1.772,2.783C45.196,83.08,45.738,81.732,45.738,80.297z"/>
    <path fill="#4D4D4D" d="M53.781,83.841l-1.523-5.684l-1.523,5.684h-1.069l-1.904-7.075h1.099l1.392,5.654l1.494-5.654h0.981
      l1.523,5.654l1.392-5.654h1.113l-1.904,7.075H53.781z"/>
    <path fill="#4D4D4D" d="M62.074,83.841v-1.011c-0.41,0.718-1.113,1.187-1.86,1.187c-1.597,0-2.549-1.479-2.549-3.706
      c0-2.212,0.952-3.721,2.549-3.721c0.732,0,1.436,0.41,1.86,1.201v-3.721h1.055v9.771H62.074z M62.074,81.937v-3.252
      c-0.264-0.615-0.923-1.157-1.597-1.157c-1.157,0-1.714,1.245-1.714,2.783c0,1.523,0.557,2.769,1.714,2.769
      C61.151,83.08,61.81,82.552,62.074,81.937z"/>
    <path fill="#4D4D4D" d="M73.604,83.841l-0.63-2.212h-3.486l-0.63,2.212h-1.26l2.944-9.771h1.392l2.93,9.771H73.604z M71.23,75.36
      l-1.494,5.229h2.988L71.23,75.36z"/>
    <path fill="#4D4D4D" d="M75.099,84.134l2.812-10.356h0.82l-2.812,10.356H75.099z"/>
    <path fill="#4D4D4D" d="M79.874,83.841v-9.771h3.252c1.538,0,2.417,1.011,2.417,2.49c0,1.23-0.659,2.007-1.494,2.241
      c0.952,0.146,1.655,1.23,1.655,2.402c0,1.582-0.85,2.637-2.49,2.637H79.874z M84.342,76.722c0-0.908-0.439-1.611-1.436-1.611
      h-1.86v3.208h1.86C83.902,78.319,84.342,77.63,84.342,76.722z M84.503,81.088c0-0.923-0.483-1.729-1.538-1.729h-1.919v3.442h1.919
      C83.99,82.801,84.503,82.157,84.503,81.088z"/>
    <path fill="#4D4D4D" d="M92.503,83.841v-8.73h-2.329v-1.04h5.815v1.04H93.66v8.73H92.503z"/>
    <path fill="#4D4D4D" d="M95.873,80.297c0-2.051,1.084-3.706,2.886-3.706c1.875,0,2.798,1.67,2.798,3.735v0.322h-4.6
      c0.044,1.421,0.776,2.49,2.051,2.49c0.615,0,1.245-0.308,1.685-0.879l0.557,0.63c-0.571,0.703-1.377,1.128-2.329,1.128
      C97.03,84.017,95.873,82.464,95.873,80.297z M98.729,77.469c-1.245,0-1.743,1.362-1.772,2.388h3.56
      C100.502,78.788,100.033,77.469,98.729,77.469z"/>
    <path fill="#4D4D4D" d="M102.642,83.006l0.527-0.732c0.41,0.498,1.084,0.894,1.846,0.894c0.835,0,1.362-0.469,1.362-1.143
      c0-1.655-3.53-1.069-3.53-3.53c0-1.055,0.85-1.904,2.256-1.904c0.952,0,1.67,0.366,2.168,0.908l-0.498,0.718
      c-0.352-0.469-0.952-0.776-1.655-0.776c-0.776,0-1.26,0.454-1.26,1.025c0,1.509,3.545,0.981,3.545,3.53
      c0,1.172-0.908,2.021-2.358,2.021C104.033,84.017,103.228,83.695,102.642,83.006z"/>
    <path fill="#4D4D4D" d="M109.22,82.421v-4.731h-0.938v-0.923h0.938v-1.934h1.055v1.934h1.187v0.923h-1.187v4.541
      c0,0.527,0.161,0.85,0.571,0.85c0.264,0,0.483-0.117,0.615-0.278l0.322,0.791c-0.264,0.249-0.615,0.425-1.157,0.425
      C109.674,84.017,109.22,83.461,109.22,82.421z"/>
    <path fill="#4D4D4D" d="M112.779,75.023c0-0.396,0.337-0.718,0.718-0.718c0.41,0,0.718,0.322,0.718,0.718
      s-0.308,0.718-0.718,0.718C113.116,75.741,112.779,75.419,112.779,75.023z M112.984,83.841v-7.075h1.04v7.075H112.984z"/>
    <path fill="#4D4D4D" d="M119.913,83.841v-5.024c0-0.952-0.425-1.289-1.128-1.289s-1.348,0.557-1.67,1.128v5.186h-1.04v-7.075h1.04
      v1.011c0.41-0.615,1.216-1.187,2.065-1.187c1.201,0,1.787,0.645,1.787,1.919v5.332H119.913z"/>
    <path fill="#4D4D4D" d="M122.961,85.819l0.483-0.864c0.483,0.557,1.084,0.82,1.846,0.82c0.981,0,1.787-0.542,1.787-1.89v-1.172
      c-0.41,0.718-1.113,1.216-1.86,1.216c-1.597,0-2.549-1.436-2.549-3.662c0-2.212,0.952-3.677,2.549-3.677
      c0.732,0,1.436,0.41,1.86,1.201v-1.025h1.055v7.119c0,2.124-1.318,2.827-2.798,2.827
      C124.382,86.713,123.649,86.493,122.961,85.819z M127.077,81.82v-3.135c-0.278-0.615-0.923-1.157-1.597-1.157
      c-1.157,0-1.714,1.216-1.714,2.739s0.557,2.725,1.714,2.725C126.154,82.992,126.799,82.435,127.077,81.82z"/>
  </g>
</g>
<g>
  <g>
    <path fill="#1A1A1A" d="M0,58.327V40.323h2.969v15.386h6.289v2.618H0z"/>
    <path fill="#1A1A1A" d="M23.886,58.327l-0.999-3.563h-5.938l-0.999,3.563h-3.212l5.398-18.004h3.563l5.398,18.004H23.886z
       M19.918,43.507l-2.375,8.611h4.75L19.918,43.507z"/>
    <path fill="#1A1A1A" d="M31.603,58.327V40.323h6.829c3.05,0,4.643,2.024,4.643,4.589c0,2.267-1.242,3.725-2.834,4.13
      c1.782,0.27,3.131,2.213,3.131,4.427c0,2.807-1.566,4.858-4.751,4.858H31.603z M39.997,45.397c0-1.403-0.702-2.456-2.24-2.456
      h-3.185v4.886h3.185C39.295,47.827,39.997,46.828,39.997,45.397z M40.294,53.063c0-1.431-0.783-2.618-2.402-2.618h-3.32v5.264
      h3.32C39.458,55.709,40.294,54.737,40.294,53.063z"/>
    <path fill="#1A1A1A" d="M48.902,58.327V40.323h9.879v2.618h-6.91v4.886h6.721v2.618h-6.721v5.264h6.91v2.618H48.902z"/>
    <path fill="#1A1A1A" d="M64.258,58.327V40.323h2.969v15.386h6.289v2.618H64.258z"/>
    <path fill="#1A1A1A" d="M78.642,58.327V40.323h9.878v2.618h-6.91v4.886h6.722v2.618H81.61v7.882H78.642z"/>
    <path fill="#1A1A1A" d="M93.188,49.339c0-5.291,2.646-9.312,7.234-9.312s7.261,4.021,7.261,9.312c0,5.29-2.672,9.312-7.261,9.312
      S93.188,54.629,93.188,49.339z M104.606,49.339c0-3.779-1.484-6.668-4.184-6.668s-4.185,2.889-4.185,6.668
      c0,3.752,1.485,6.667,4.185,6.667S104.606,53.09,104.606,49.339z"/>
    <path fill="#1A1A1A" d="M121.446,58.327l-3.077-6.802h-2.241v6.802h-2.969V40.323h6.208c3.132,0,5.291,2.24,5.291,5.561
      c0,3.131-1.755,4.696-3.374,5.128l3.509,7.315H121.446z M121.581,45.91c0-1.781-1.025-2.969-2.646-2.969h-2.808v5.938h2.808
      C120.556,48.88,121.581,47.692,121.581,45.91z"/>
    <path fill="#1A1A1A" d="M129.622,49.339c0-5.426,2.834-9.312,7.369-9.312c3.158,0,4.777,1.97,5.723,3.968l-2.457,1.106
      c-0.647-1.431-1.754-2.43-3.266-2.43c-2.646,0-4.319,2.808-4.319,6.668c0,3.859,1.674,6.667,4.319,6.667
      c1.565,0,2.699-1.134,3.266-2.646l2.483,1.08c-0.944,2.105-2.564,4.211-5.749,4.211C132.456,58.651,129.622,54.763,129.622,49.339
      z"/>
    <path fill="#1A1A1A" d="M147.812,58.327V40.323h9.879v2.618h-6.91v4.886h6.722v2.618h-6.722v5.264h6.91v2.618H147.812z"/>
  </g>
</g>
<g>
  <g>
    <polyline fill="none" stroke="#000000" stroke-width="1.1" stroke-linejoin="round" stroke-miterlimit="10" points="91.851,6.358 
      91.851,27.268 70.941,27.268     "/>
    <polyline fill="none" stroke="#000000" stroke-width="1.1" stroke-linejoin="round" stroke-miterlimit="10" points="89.527,2.873 
      89.527,24.945 67.456,24.945     "/>
    
      <rect x="65.133" y="0.55" fill="none" stroke="#000000" stroke-width="1.1" stroke-linejoin="round" stroke-miterlimit="10" width="22.071" height="22.071"/>
    <polyline fill="none" stroke="#000000" stroke-width="1.1" stroke-linejoin="round" stroke-miterlimit="10" points="84.3,17.975 
      80.815,8.682 76.168,15.651 73.264,12.167 69.779,17.975    "/>
    
      <circle fill="none" stroke="#000000" stroke-width="1.1" stroke-linejoin="round" stroke-miterlimit="10" cx="71.522" cy="5.777" r="1.742"/>
    
      <line fill="none" stroke="#000000" stroke-width="1.1" stroke-linejoin="round" stroke-miterlimit="10" x1="87.204" y1="17.975" x2="65.133" y2="17.975"/>
  </g>
  <polygon fill="none" stroke="#000000" stroke-width="1.1" stroke-linejoin="round" stroke-miterlimit="10" points="98.326,21.178 
    98.326,6.648 110.311,13.913   "/>
  <polygon fill="none" stroke="#000000" stroke-width="1.1" stroke-linejoin="round" stroke-miterlimit="10" points="58.904,6.64 
    58.904,21.169 46.919,13.905   "/>
</g>
</svg>
