<!-- Generator: Adobe Illustrator 18.1.1, SVG Export Plug-In  -->
<svg version="1.1"
   xmlns="http://www.w3.org/2000/svg" xmlns:xlink="http://www.w3.org/1999/xlink" xmlns:a="http://ns.adobe.com/AdobeSVGViewerExtensions/3.0/"
   x="0px" y="0px" width="18.271px" height="38.383px" viewBox="0 0 18.271 38.383" enable-background="new 0 0 18.271 38.383"
   xml:space="preserve">
<defs>
</defs>
<g>
  <g>
    <path fill="#1A1A1A" d="M6.65,38.191v-5.49c0-1.04-0.464-1.408-1.232-1.408S3.945,31.9,3.594,32.525v5.666H2.457V30.46h1.137
      v1.104c0.447-0.672,1.328-1.296,2.257-1.296c1.312,0,1.952,0.704,1.952,2.097v5.826H6.65z"/>
    <path fill="#1A1A1A" d="M9.656,34.317c0-2.177,1.089-4.049,3.153-4.049c2.081,0,3.153,1.872,3.153,4.049
      c0,2.178-1.072,4.066-3.153,4.066C10.745,38.383,9.656,36.495,9.656,34.317z M14.763,34.317c0-1.552-0.592-3.024-1.953-3.024
      c-1.344,0-1.937,1.473-1.937,3.024c0,1.569,0.593,3.042,1.937,3.042C14.171,37.359,14.763,35.886,14.763,34.317z"/>
  </g>
</g>
<g>
  <line fill="none" stroke="#000000" stroke-linecap="round" stroke-linejoin="round" x1="0.5" y1="8.76" x2="17.771" y2="8.76"/>
  <polyline fill="none" stroke="#000000" stroke-linecap="round" stroke-linejoin="round" points="9.886,0.5 0.5,8.76 9.886,17.02  
    "/>
</g>
</svg>
