<!-- Generator: Adobe Illustrator 18.1.1, SVG Export Plug-In  -->
<svg version="1.1"
   xmlns="http://www.w3.org/2000/svg" xmlns:xlink="http://www.w3.org/1999/xlink" xmlns:a="http://ns.adobe.com/AdobeSVGViewerExtensions/3.0/"
   x="0px" y="0px" width="158.716px" height="158.903px" viewBox="0 0 158.716 158.903" enable-background="new 0 0 158.716 158.903"
   xml:space="preserve">
<defs>
</defs>
<g>
  <path opacity="0.32" fill="#FFFFFF" d="M145.581,79.506c0-11.798,10.591-22.994,5.978-33.061
    c-4.283-9.346-16.908-11.136-24.287-18.108c-6.514-6.155-7.487-17.802-15.791-21.485c-9.836-4.363-20.724,6.376-32.177,6.376
    c-10.283,0-20.11-11.209-29.129-7.653C40.099,9.55,37.613,22.104,30.042,29.588c-6.897,6.817-19.133,8.306-23.176,17.26
    c-4.498,9.962,6.161,21.018,6.161,32.659c0,11.397-10.763,22.233-6.441,32.031s17.148,11.976,24.836,19.219
    c6.475,6.1,7.393,17.707,15.632,21.371c9.855,4.383,20.768,0.238,32.25,0.238c10.724,0,20.952,4.456,30.285,0.605
    c9.756-4.026,11.953-16.521,19.3-23.866c7.19-7.188,19.589-9.166,23.61-18.671S145.581,90.476,145.581,79.506z"/>
  <path opacity="0.32" fill="#FFFFFF" d="M141.241,103.258c4.236-11.011,18.142-17.658,17.451-28.709
    c-0.642-10.261-11.782-16.464-16.165-25.621c-3.869-8.084-0.596-19.303-7.023-25.722c-7.614-7.604-21.631-1.491-32.321-5.603
    C93.586,13.91,88.44-0.08,78.745,0c-10.83,0.09-17.659,10.914-27.412,15.18c-8.884,3.886-20.839,0.881-27.828,7.786
    c-7.776,7.682-1.798,21.828-5.978,32.693C13.435,66.297-0.502,72.545,0.014,83.242s11.704,17.335,16.278,26.856
    c3.853,8.018,0.542,19.18,6.915,25.558c7.624,7.63,19.298,7.679,30.014,11.802c10.009,3.851,17.954,11.683,28.048,11.439
    c10.551-0.255,17.089-11.127,26.583-15.344c9.291-4.127,21.574-1.521,28.74-8.948C143.759,127.178,137.302,113.496,141.241,103.258
    z"/>
  <g>
    <g>
      <path d="M49.418,86.149l1.498-2.076c1.158,1.396,3.064,2.519,5.311,2.519c2.859,0,4.153-1.804,4.153-3.744
        c0-5.515-10.281-4.051-10.281-11.37c0-3.473,2.757-5.958,6.536-5.958c2.519,0,4.596,0.852,6.06,2.417l-1.396,2.043
        c-1.26-1.396-2.928-2.043-4.732-2.043c-2.111,0-3.711,1.362-3.711,3.404c0,4.8,10.281,3.745,10.281,11.336
        c0,3.337-2.179,6.332-6.911,6.332C53.265,89.008,50.984,87.885,49.418,86.149z"/>
      <path d="M67.014,85.298V74.302h-2.179v-2.145h2.179v-4.494h2.451v4.494h2.757v2.145h-2.757v10.553
        c0,1.226,0.375,1.975,1.328,1.975c0.613,0,1.124-0.272,1.43-0.646l0.749,1.838c-0.613,0.579-1.43,0.987-2.689,0.987
        C68.07,89.008,67.014,87.715,67.014,85.298z"/>
      <path d="M84.237,88.6v-1.805c-1.055,1.532-2.689,2.213-4.357,2.213c-2.655,0-4.97-2.042-4.97-5.48s2.315-5.413,4.97-5.413
        c1.702,0,3.303,0.647,4.357,2.145v-2.894c0-2.246-1.226-3.506-3.37-3.506c-1.532,0-2.859,0.579-4.153,2.009l-1.089-1.702
        c1.566-1.668,3.506-2.417,5.617-2.417c3.233,0,5.446,1.634,5.446,5.345V88.6H84.237z M84.237,85.196v-3.234
        c-0.783-1.464-2.145-2.076-3.54-2.076c-2.077,0-3.302,1.634-3.302,3.677c0,2.042,1.226,3.677,3.302,3.677
        C82.092,87.239,83.454,86.626,84.237,85.196z"/>
      <path d="M91.416,88.6V72.158h2.417v2.621c1.055-1.736,2.655-2.962,4.663-2.962v2.485c-0.271-0.034-0.544-0.068-0.816-0.068
        c-1.498,0-3.166,1.294-3.847,2.689V88.6H91.416z"/>
      <path d="M102.068,85.298V74.302h-2.179v-2.145h2.179v-4.494h2.451v4.494h2.757v2.145h-2.757v10.553
        c0,1.226,0.374,1.975,1.327,1.975c0.613,0,1.123-0.272,1.43-0.646l0.749,1.838c-0.612,0.579-1.43,0.987-2.689,0.987
        C103.123,89.008,102.068,87.715,102.068,85.298z"/>
    </g>
  </g>
</g>
</svg>
