<!-- Generator: Adobe Illustrator 18.1.1, SVG Export Plug-In  -->
<svg version="1.1"
   xmlns="http://www.w3.org/2000/svg" xmlns:xlink="http://www.w3.org/1999/xlink" xmlns:a="http://ns.adobe.com/AdobeSVGViewerExtensions/3.0/"
   x="0px" y="0px" width="19.843px" height="41.329px" viewBox="0 0 19.843 41.329" enable-background="new 0 0 19.843 41.329"
   xml:space="preserve">
<defs>
</defs>
<g>
  <g>
    <path fill="#1A1A1A" d="M0.753,40.192c0.128,0.08,0.368,0.112,0.512,0.112c0.433,0,0.704-0.177,0.912-0.769l0.4-1.185L0,30.46
      h1.249l1.937,6.339l1.937-6.339h1.232L3.25,39.807c-0.368,1.137-0.993,1.521-1.921,1.521c-0.225,0-0.593-0.049-0.769-0.112
      L0.753,40.192z"/>
    <path fill="#1A1A1A" d="M7.248,34.317c0-2.24,1.185-4.049,3.153-4.049c2.049,0,3.058,1.824,3.058,4.081v0.353H8.433
      c0.048,1.553,0.849,2.721,2.241,2.721c0.672,0,1.36-0.336,1.841-0.96l0.608,0.688c-0.624,0.768-1.505,1.232-2.545,1.232
      C8.513,38.383,7.248,36.686,7.248,34.317z M10.37,31.228c-1.361,0-1.905,1.488-1.938,2.609h3.89
      C12.307,32.669,11.794,31.228,10.37,31.228z"/>
    <path fill="#1A1A1A" d="M14.641,37.279l0.576-0.801c0.448,0.544,1.185,0.977,2.017,0.977c0.912,0,1.488-0.512,1.488-1.248
      c0-1.81-3.857-1.169-3.857-3.858c0-1.152,0.929-2.08,2.465-2.08c1.041,0,1.825,0.399,2.369,0.992l-0.544,0.784
      c-0.385-0.512-1.041-0.849-1.809-0.849c-0.849,0-1.377,0.496-1.377,1.121c0,1.648,3.874,1.072,3.874,3.857
      c0,1.28-0.993,2.209-2.577,2.209C16.161,38.383,15.28,38.031,14.641,37.279z"/>
  </g>
</g>
<g>
  <line fill="none" stroke="#000000" stroke-linecap="round" stroke-linejoin="round" x1="19.343" y1="8.76" x2="2.072" y2="8.76"/>
  <polyline fill="none" stroke="#000000" stroke-linecap="round" stroke-linejoin="round" points="9.957,17.02 19.343,8.76 
    9.957,0.5   "/>
</g>
</svg>
